<svg xmlns="http://www.w3.org/2000/svg">
    <symbol id="vk" viewBox="0 0 24 24">
        <path d="M12 0C5.37423 0 0 5.37423 0 12C0 18.6258 5.37423 24 12 24C18.6258 24 24 18.6258 24 12C24 5.37423 18.6258 0 12 0ZM18.0859 13.3006C18.6503 13.8405 19.2393 14.3558 19.7301 14.9693C19.9509 15.2393 20.1718 15.5092 20.319 15.8282C20.5399 16.2699 20.3436 16.7607 19.9509 16.7853H17.4969C16.8589 16.8344 16.3681 16.589 15.9264 16.1472C15.5828 15.8037 15.2638 15.4356 14.9448 15.0675C14.8221 14.9202 14.6748 14.773 14.5031 14.6748C14.1595 14.454 13.865 14.5276 13.6933 14.8712C13.4969 15.2393 13.4479 15.6319 13.4233 16.0245C13.3988 16.6135 13.227 16.7607 12.638 16.7853C11.3865 16.8344 10.2086 16.6626 9.12883 16.0245C8.17178 15.4601 7.41104 14.6994 6.77301 13.816C5.49693 12.0982 4.53988 10.2086 3.65644 8.26994C3.46012 7.82822 3.60736 7.60736 4.09816 7.58282C4.90798 7.55828 5.69325 7.55828 6.50307 7.58282C6.82209 7.58282 7.04294 7.77914 7.16564 8.07362C7.60736 9.12883 8.1227 10.1595 8.78528 11.092C8.95705 11.3374 9.15337 11.5828 9.39877 11.7791C9.69325 11.9755 9.88957 11.9018 10.0368 11.5828C10.1104 11.3865 10.1595 11.1656 10.184 10.9448C10.2577 10.2086 10.2577 9.47239 10.135 8.7362C10.0613 8.2454 9.81595 7.95092 9.34969 7.85276C9.10429 7.80368 9.15337 7.73006 9.25153 7.58282C9.44785 7.36196 9.64417 7.21472 10.0123 7.21472H12.7853C13.227 7.31288 13.3252 7.48466 13.3742 7.92638V11.0184C13.3742 11.1902 13.4479 11.7055 13.7669 11.8037C14.0123 11.8773 14.184 11.681 14.3313 11.5337C14.9939 10.8221 15.4601 9.98773 15.9018 9.12883C16.0982 8.7362 16.2454 8.34356 16.4172 7.95092C16.5399 7.65644 16.7117 7.5092 17.0552 7.5092H19.7301C19.8037 7.5092 19.8773 7.5092 19.9755 7.53374C20.4172 7.60736 20.5399 7.80368 20.4172 8.2454C20.1963 8.93251 19.7791 9.52147 19.362 10.0859C18.9202 10.6994 18.4294 11.2883 17.9877 11.9264C17.546 12.5153 17.5706 12.8098 18.0859 13.3006Z"/>
    </symbol>

    <symbol id="fb" viewBox="0 0 24 24">
        <path d="M24 12C24 5.37188 18.6281 0 12 0C5.37188 0 0 5.37188 0 12C0 18.6281 5.37188 24 12 24C12.0703 24 12.1406 24 12.2109 23.9953V14.6578H9.63281V11.6531H12.2109V9.44062C12.2109 6.87656 13.7766 5.47969 16.0641 5.47969C17.1609 5.47969 18.1031 5.55938 18.375 5.59688V8.27813H16.8C15.5578 8.27813 15.3141 8.86875 15.3141 9.73594V11.6484H18.2906L17.9016 14.6531H15.3141V23.5359C20.3297 22.0969 24 17.4797 24 12Z"/>
    </symbol>

    <symbol id="inst" viewBox="0 0 24 24">
        <path d="M14.2969 12C14.2969 13.2703 13.2703 14.2969 12 14.2969C10.7297 14.2969 9.70312 13.2703 9.70312 12C9.70312 10.7297 10.7297 9.70312 12 9.70312C13.2703 9.70312 14.2969 10.7297 14.2969 12Z"/>
        <path d="M17.3719 7.93593C17.2594 7.63593 17.0859 7.36405 16.8563 7.14374C16.6359 6.91405 16.3641 6.74061 16.0641 6.62811C15.8203 6.53436 15.4547 6.42186 14.7844 6.38905C14.0578 6.35624 13.8375 6.34686 12 6.34686C10.1578 6.34686 9.94219 6.35155 9.21563 6.38905C8.54531 6.42186 8.17969 6.53436 7.93594 6.62811C7.63594 6.74061 7.36406 6.91405 7.14375 7.14374C6.91406 7.36405 6.74062 7.63593 6.62812 7.93593C6.53437 8.17968 6.42187 8.5453 6.38906 9.21561C6.35625 9.94218 6.34687 10.1578 6.34687 12C6.34687 13.8375 6.35625 14.0578 6.38906 14.7844C6.42187 15.4547 6.52969 15.8203 6.62812 16.0641C6.74062 16.364 6.91406 16.6359 7.14375 16.8562C7.36406 17.0859 7.63594 17.2594 7.93594 17.3719C8.17969 17.4656 8.54531 17.5781 9.21563 17.6109C9.94219 17.6437 10.1578 17.6531 12 17.6531C13.8422 17.6531 14.0578 17.6484 14.7844 17.6109C15.4547 17.5781 15.8203 17.4703 16.0641 17.3719C16.6641 17.1422 17.1422 16.6641 17.3719 16.0641C17.4656 15.8203 17.5781 15.4547 17.6109 14.7844C17.6438 14.0578 17.6531 13.8375 17.6531 12C17.6531 10.1578 17.6484 9.94218 17.6109 9.21561C17.5781 8.5453 17.4656 8.17968 17.3719 7.93593ZM12 15.5391C10.0453 15.5391 8.46094 13.9547 8.46094 12C8.46094 10.0453 10.0453 8.46093 12 8.46093C13.9547 8.46093 15.5391 10.0453 15.5391 12C15.5391 13.9547 13.9547 15.5391 12 15.5391ZM15.6797 9.14999C15.225 9.14999 14.8547 8.77968 14.8547 8.32499C14.8547 7.8703 15.225 7.49999 15.6797 7.49999C16.1344 7.49999 16.5047 7.8703 16.5047 8.32499C16.5047 8.77968 16.1344 9.14999 15.6797 9.14999Z"/>
        <path d="M12 0C5.37188 0 0 5.37188 0 12C0 18.6281 5.37188 24 12 24C18.6281 24 24 18.6281 24 12C24 5.37188 18.6281 0 12 0ZM18.8484 14.8406C18.8156 15.5719 18.6984 16.0734 18.5297 16.5141C18.1734 17.4375 17.4422 18.1734 16.5141 18.5297C16.0781 18.6984 15.5766 18.8156 14.8406 18.8484C14.1047 18.8813 13.8703 18.8906 12 18.8906C10.1297 18.8906 9.89531 18.8813 9.15937 18.8484C8.42812 18.8156 7.92656 18.6984 7.48594 18.5297C7.02656 18.3562 6.60938 18.0844 6.26719 17.7328C5.91562 17.3906 5.64375 16.9734 5.47031 16.5141C5.30156 16.0781 5.18438 15.5766 5.15156 14.8406C5.11875 14.1047 5.10938 13.8703 5.10938 12C5.10938 10.1297 5.11875 9.89531 5.15156 9.15937C5.18438 8.42812 5.30156 7.92656 5.47031 7.48594C5.64375 7.02656 5.91562 6.60938 6.26719 6.26719C6.60938 5.91562 7.02656 5.64375 7.48594 5.47031C7.92656 5.30156 8.42344 5.18438 9.15937 5.15156C9.89531 5.11875 10.1297 5.10938 12 5.10938C13.8703 5.10938 14.1047 5.11875 14.8406 5.15156C15.5719 5.18438 16.0734 5.30156 16.5141 5.47031C16.9734 5.64375 17.3906 5.91562 17.7328 6.26719C18.0844 6.60938 18.3562 7.02656 18.5297 7.48594C18.6984 7.92656 18.8156 8.42344 18.8484 9.15937C18.8813 9.89531 18.8906 10.1297 18.8906 12C18.8906 13.8703 18.8813 14.1047 18.8484 14.8406Z"/>
    </symbol>

    <symbol id="telegram" viewBox="0 0 24 24">
        <path d="M12 24C18.6281 24 24 18.6281 24 12C24 5.37188 18.6281 0 12 0C5.37188 0 0 5.37188 0 12C0 18.6281 5.37188 24 12 24ZM5.48906 11.7422L17.0625 7.27969C17.6016 7.0875 18.0703 7.41094 17.8922 8.22187L15.9234 17.5031C15.7781 18.1594 15.3844 18.3234 14.8406 18.0094L11.8406 15.7969L10.3922 17.1891C10.2328 17.3484 10.0969 17.4844 9.7875 17.4844L9.99844 14.4328L15.5625 9.4125C15.8062 9.20156 15.5063 9.07969 15.1875 9.29062L8.31562 13.6172L5.35312 12.6937C4.71094 12.4875 4.69688 12.0516 5.48906 11.7422Z"/>
    </symbol>

    <symbol id="logo-tel" viewBox="0 0 14 15">
        <path d="M13.7455 13.0923C13.4909 13.5935 12.9818 13.8441 12.4727 14.0947C11.8364 14.4706 11.3273 14.5959 10.6909 14.5959C9.8 14.5959 8.90909 14.22 8.14545 13.9694C7.50909 13.7188 7 13.4682 6.36364 13.2176C4.58182 12.09 2.54545 10.0853 1.52727 8.45643C1.14545 7.82996 0.890909 7.32878 0.636364 6.70231C0.381818 5.82525 0 5.07349 0 4.07113C0 3.44466 0.127273 2.81819 0.509091 2.19172C0.763636 1.69054 1.01818 1.18936 1.52727 0.938771C1.90909 0.938771 2.54545 0.813477 2.92727 0.813477C3.05455 0.813477 3.05455 0.813477 3.18182 0.813477C3.43636 0.938771 3.56364 1.31465 3.69091 1.56524C3.94545 2.19172 4.32727 2.69289 4.58182 3.31936C4.83636 3.56995 5.09091 3.82054 5.09091 4.07113C5.09091 4.6976 3.30909 5.57466 3.30909 6.07584C3.30909 6.32643 3.56364 6.70231 3.69091 6.9529C4.70909 8.70702 5.98182 9.95997 7.76364 10.9623C8.01818 11.0876 8.4 11.3382 8.65455 11.3382C9.16364 11.3382 10.0545 9.58408 10.6909 9.58408C10.9455 9.58408 11.2 9.83467 11.4545 10.0853C11.9636 10.4611 12.6 10.7117 13.1091 11.0876C13.3636 11.2129 13.7455 11.3382 13.8727 11.5888C13.8727 11.7141 13.8727 11.7141 13.8727 11.8394C14 12.09 13.8727 12.7164 13.7455 13.0923Z"/>
    </symbol>

    <symbol id="ear" viewBox="0 0 41 41">
        <g clip-path="url(#clip0)">
        <path d="M12.5923 0.788452C6.0838 0.788452 0.788452 6.52513 0.788452 13.6081C0.813499 15.2504 1.26379 16.8582 2.0954 18.2746C2.48837 18.9449 2.82485 19.6468 3.10135 20.373C3.28473 20.9068 3.10872 21.498 2.6633 21.8446C1.88835 22.4641 1.43928 23.404 1.44422 24.3962C1.44111 25.4864 1.9801 26.5069 2.88233 27.1189C3.20669 27.3393 3.40398 27.7033 3.41153 28.0954V33.577C3.41153 37.1929 6.05888 40.1347 9.31347 40.1347C12.5681 40.1347 15.2154 37.1929 15.2154 33.577C15.2054 30.8762 16.3799 28.3068 18.4287 26.5471C22.2694 23.3425 24.4615 18.5777 24.3962 13.576C24.3962 6.52513 19.1008 0.788452 12.5923 0.788452ZM17.5762 25.551C15.2357 27.5594 13.8934 30.4929 13.9039 33.577C13.9039 36.4696 11.8441 38.8231 9.31347 38.8231C6.78285 38.8231 4.72307 36.4696 4.72307 33.577V28.0954C4.71245 27.2832 4.31391 26.5251 3.65089 26.0559C3.09063 25.69 2.75372 25.0654 2.75576 24.3962C2.75126 23.793 3.02755 23.222 3.50334 22.8512C4.37644 22.1517 4.70981 20.9754 4.33355 19.9219C4.03153 19.1275 3.66367 18.3598 3.23382 17.6267C2.51115 16.3975 2.12043 15.0017 2.09999 13.576C2.09999 7.24845 6.80711 2.09999 12.5923 2.09999C18.3775 2.09999 23.0846 7.24845 23.0846 13.576C23.1447 18.1933 21.1213 22.592 17.5762 25.551Z"/>
        <path d="M12.5923 4.06729C8.9377 4.06729 5.82148 6.6589 4.61158 10.2814C4.60306 10.303 4.59715 10.324 4.5906 10.3469C4.24485 11.3989 4.06778 12.4989 4.06598 13.6061C4.06598 14.3931 4.06598 16.7997 5.56966 18.3034C5.82697 18.5519 6.23598 18.5484 6.48893 18.2954C6.74189 18.0425 6.74544 17.6335 6.49692 17.3762C5.95817 16.7773 5.61221 16.03 5.50408 15.2318C5.60966 15.2252 5.71393 15.2167 5.82344 15.2167C8.83343 15.2154 11.2808 17.9696 11.2808 21.3534C11.2808 21.6675 11.2657 21.9626 11.2414 22.2538C10.9149 22.6024 10.5676 22.9309 10.2014 23.2374C8.29139 24.8016 7.2328 27.1762 7.34614 29.6423C7.34614 30.0045 7.63974 30.2981 8.00191 30.2981C8.36409 30.2981 8.65768 30.0045 8.65768 29.6423C8.54487 27.563 9.43359 25.5552 11.0486 24.2408C13.3623 22.465 14.6711 19.6774 14.5596 16.763C14.5596 12.6579 11.4709 9.31345 7.67403 9.31345C7.23785 9.3146 6.80296 9.36075 6.37626 9.45117C7.51611 7.0315 9.91876 5.45745 12.5923 5.37883C16.5696 5.37883 19.8058 9.06885 19.8058 13.6048C19.8573 17.1782 18.3076 20.5872 15.5813 22.8977C15.4908 22.9758 15.3905 23.0597 15.2816 23.1509C13.9766 24.2355 11.2624 26.4953 10.6289 32.1933C10.5906 32.5523 10.8498 32.8748 11.2086 32.9146C11.2325 32.9181 11.2566 32.9203 11.2808 32.9212C11.6148 32.9209 11.8952 32.6695 11.9319 32.3376C12.5071 27.1635 14.8567 25.2087 16.1197 24.1588C16.2358 24.0617 16.3427 23.9725 16.4384 23.8899C19.4567 21.3331 21.1731 17.5601 21.1173 13.6048C21.1173 8.34554 17.2929 4.06729 12.5923 4.06729ZM7.67403 10.625C10.7476 10.625 13.2481 13.3792 13.2481 16.763C13.2778 18.0038 13.0314 19.2358 12.5267 20.3697C12.0867 16.7237 9.25247 13.9038 5.82476 13.9038C5.67327 13.9038 5.52769 13.915 5.38145 13.9255C5.38145 13.7996 5.38145 13.6901 5.38145 13.6048C5.38169 12.7278 5.50712 11.8554 5.75393 11.0139C6.36201 10.7587 7.0146 10.6266 7.67403 10.625Z"/>
        <path d="M33.577 15.8712C33.6273 13.8043 34.5038 11.8439 36.0105 10.4283C36.1936 10.2657 36.2708 10.0148 36.2109 9.77745C36.151 9.54012 35.9639 9.35591 35.7257 9.29971C35.4874 9.2435 35.2377 9.32466 35.078 9.51019C33.3267 11.1684 32.3135 13.4598 32.2654 15.8712C32.3135 18.2825 33.3267 20.5739 35.078 22.2321C35.2377 22.4177 35.4874 22.4988 35.7257 22.4426C35.9639 22.3864 36.151 22.2022 36.2109 21.9649C36.2708 21.7275 36.1936 21.4766 36.0105 21.3141C34.5038 19.8984 33.6273 17.938 33.577 15.8712Z"/>
        <path d="M37.9477 12.1025C37.8178 11.9868 37.6472 11.9275 37.4736 11.9375C37.2999 11.9476 37.1374 12.0263 37.0217 12.1562C35.0519 14.2412 35.0519 17.5012 37.0217 19.5861C37.1775 19.7611 37.4149 19.8397 37.6443 19.7923C37.8738 19.7449 38.0605 19.5786 38.1342 19.3562C38.2078 19.1338 38.1572 18.8889 38.0014 18.7139C36.474 17.1265 36.474 14.6158 38.0014 13.0284C38.1171 12.8985 38.1764 12.7279 38.1664 12.5543C38.1563 12.3806 38.0776 12.2181 37.9477 12.1025Z"/>
        <path d="M39.9661 14.1209C39.7238 13.8519 39.3093 13.8302 39.0402 14.0724C38.489 14.5066 38.1674 15.1695 38.1674 15.8712C38.1674 16.5728 38.489 17.2358 39.0402 17.67C39.2134 17.8322 39.4608 17.8883 39.687 17.8164C39.9133 17.7445 40.083 17.556 40.1308 17.3235C40.1786 17.091 40.0971 16.8508 39.9176 16.6955C39.6633 16.4935 39.5045 16.1949 39.4789 15.8712C39.5045 15.5475 39.6633 15.2489 39.9176 15.0469C40.1866 14.8046 40.2083 14.3901 39.9661 14.1209Z"/>
        <path d="M30.2981 15.8712C30.2981 12.9858 31.5906 10.1974 34.036 7.81567C34.2037 7.65167 34.2713 7.41064 34.2131 7.18337C34.1549 6.95609 33.98 6.77711 33.7541 6.71383C33.5282 6.65056 33.2857 6.71261 33.1179 6.87661C30.4161 9.51018 28.9866 12.6205 28.9866 15.8712C28.9866 19.1218 30.4161 22.2321 33.1179 24.8657C33.3772 25.1192 33.793 25.1145 34.0465 24.8552C34.3 24.5959 34.2953 24.1802 34.036 23.9267C31.5906 21.5449 30.2981 18.7566 30.2981 15.8712Z"/>
        <path d="M27.0193 15.8712C27.0193 12.2684 28.542 8.79802 31.4241 5.83787C31.5881 5.66989 31.65 5.42718 31.5866 5.20116C31.5231 4.97514 31.3439 4.80016 31.1164 4.74212C30.8889 4.68409 30.6477 4.75181 30.4837 4.9198C27.3596 8.13307 25.7077 11.9201 25.7077 15.8712C25.7077 19.8222 27.3596 23.6092 30.4837 26.8225C30.7373 27.0822 31.1533 27.0872 31.413 26.8337C31.6727 26.5801 31.6776 26.1641 31.4241 25.9044C28.542 22.9443 27.0193 19.474 27.0193 15.8712Z"/>
        </g>
    </symbol>

    <symbol id="battery" viewBox="0 0 41 41">
        <g clip-path="url(#clip0)">
        <path d="M27.031 4.73074H13.969C12.527 4.73074 11.3539 5.90383 11.3539 7.34588V36.8079C11.3539 38.2499 12.527 39.423 13.969 39.423H27.031C28.4731 39.423 29.6462 38.2499 29.6462 36.8079V7.34597C29.6462 5.90383 28.4731 4.73074 27.031 4.73074ZM28.3846 36.8079C28.3846 37.5542 27.7772 38.1616 27.031 38.1616H13.969C13.2228 38.1616 12.6154 37.5542 12.6154 36.8079V7.34597C12.6154 6.59977 13.2228 5.99234 13.969 5.99234H27.031C27.7773 5.99234 28.3847 6.59977 28.3847 7.34597V36.8079H28.3846Z"/>
        <path d="M23.9693 1.57693H17.0308C16.6825 1.57693 16.4 1.8594 16.4 2.20773V5.36155C16.4 5.70989 16.6825 5.99235 17.0308 5.99235H23.9693C24.3176 5.99235 24.6001 5.70989 24.6001 5.36155V2.20773C24.6 1.8594 24.3176 1.57693 23.9693 1.57693ZM23.3385 4.73075H17.6615V2.83844H23.3385V4.73075Z"/>
        <path d="M25.1319 18.8996C25.0161 18.7175 24.8155 18.6075 24.6 18.6075H20.8154V12.9306C20.8154 12.6349 20.6099 12.379 20.3213 12.315C20.0301 12.2512 19.738 12.396 19.613 12.6639L15.1976 22.1255C15.1065 22.3207 15.1215 22.5494 15.2373 22.731C15.3531 22.9132 15.5537 23.0231 15.7692 23.0231H19.5538V28.7C19.5538 28.9957 19.7593 29.2516 20.0479 29.3157C20.0938 29.3259 20.1396 29.3308 20.1849 29.3308C20.4257 29.3308 20.6509 29.1922 20.7562 28.9667L25.1716 19.5052C25.2627 19.3099 25.2477 19.0812 25.1319 18.8996ZM19.5538 21.7615H16.7597L19.5538 15.7738V21.7615ZM20.8154 25.857V19.8692H23.6095L20.8154 25.857Z"/>
        </g>
    </symbol>

    <symbol id="socket" viewBox="0 0 41 41">
        <g clip-path="url(#clip0)">
        <path d="M30.5923 9.77691H28.7V3.46924C28.7 2.39691 27.88 1.57693 26.8077 1.57693C25.7353 1.57693 24.9154 2.39691 24.9154 3.46924V9.77691H16.0846V3.46924C16.0846 2.39691 15.2647 1.57693 14.1923 1.57693C13.12 1.57693 12.3 2.39691 12.3 3.46924V9.77691H10.4077C10.0293 9.77691 9.77697 10.0292 9.77697 10.4077V15.2015C9.77697 18.3553 10.9754 21.383 13.1201 23.7169C15.0124 25.8615 16.0847 28.6369 16.0847 31.4753V33.1153C16.0847 34.8815 17.4724 36.2692 19.2386 36.2692H19.8693V38.7923C19.8693 39.1707 20.1216 39.423 20.5001 39.423C20.8785 39.423 21.1308 39.1707 21.1308 38.7923V36.2692H21.7616C23.5277 36.2692 24.9154 34.8815 24.9154 33.1153V31.5384C24.9154 28.6369 25.9246 25.9246 27.8801 23.78C30.0247 21.4462 31.2232 18.3553 31.2232 15.2016V10.4077C31.2231 10.0293 30.9707 9.77691 30.5923 9.77691ZM26.1769 3.46924C26.1769 3.09078 26.4292 2.8385 26.8077 2.8385C27.1861 2.8385 27.4384 3.09078 27.4384 3.46924V9.77691H26.1769V3.46924ZM13.5615 3.46924C13.5615 3.15383 13.8138 2.8385 14.1923 2.8385C14.5707 2.8385 14.823 3.09078 14.823 3.46924V9.77691H13.5614V3.46924H13.5615ZM29.9615 15.1385C29.9615 18.04 28.9523 20.7524 26.9969 22.897C24.8523 25.2308 23.6539 28.3215 23.6539 31.4754V33.1154C23.6539 34.1878 22.8339 35.0077 21.7616 35.0077H19.2385C18.1662 35.0077 17.3462 34.1878 17.3462 33.1154V31.5385C17.3462 28.3847 16.1478 25.2939 14.0031 22.9601C12.1108 20.8154 11.0385 18.04 11.0385 15.2016V11.0385H12.9308H15.4538H25.5461H28.0692H29.9615V15.1385Z"/>
        <path d="M23.0231 17.977H19.4907L22.8338 14.6339C23.0861 14.3816 23.0861 14.0031 22.8338 13.7508C22.5815 13.4984 22.2031 13.4985 21.9507 13.7508L17.5354 18.1661C17.3461 18.3554 17.2831 18.6076 17.4092 18.86C17.4722 19.1123 17.7246 19.2385 17.9769 19.2385H21.5092L18.1661 22.5816C17.9138 22.8338 17.9138 23.2123 18.1661 23.4647C18.2923 23.5908 18.4184 23.6539 18.6076 23.6539C18.7968 23.6539 18.923 23.5908 19.0491 23.4647L23.4645 19.0493C23.6537 18.8601 23.7168 18.6078 23.5907 18.3554C23.5277 18.1031 23.2754 17.977 23.0231 17.977Z"/>
        </g>
    </symbol>

    <symbol id="batterywhy" viewBox="0 0 60 60">
        <path d="M42.536 4H36V0H24V4H17.464C15.554 4 14 5.554 14 7.464V56.536C14 58.446 15.554 60 17.464 60H42.536C44.446 60 46 58.446 46 56.536V7.464C46 5.554 44.446 4 42.536 4ZM16 19H44V31H16V19ZM16 33H44V45H16V33ZM26 2H34V4H26V2ZM17.464 6H24H36H42.536C43.344 6 44 6.656 44 7.464V17H16V7.464C16 6.656 16.656 6 17.464 6ZM42.536 58H17.464C16.656 58 16 57.344 16 56.536V47H44V56.536C44 57.344 43.344 58 42.536 58Z"/>
    </symbol>

    <symbol id="sound" viewBox="0 0 53 53">
        <g clip-path="url(#clip0)">
        <path d="M28.404 3.41299C27.428 2.86099 26.273 2.87899 25.314 3.45699C25.268 3.48399 25.224 3.51599 25.184 3.54999L11.634 15.013H1C0.447 15.013 0 15.46 0 16.013V35.013C0 35.279 0.105 35.533 0.293 35.72C0.481 35.907 0.734 36.013 1 36.013L11.61 36.008L25.153 48.448C25.203 48.494 25.257 48.534 25.314 48.568C25.806 48.865 26.351 49.014 26.896 49.014C27.413 49.013 27.929 48.88 28.404 48.612C29.403 48.048 30 47.018 30 45.857V6.16899C30 5.00799 29.403 3.97799 28.404 3.41299ZM28 45.857C28 46.288 27.783 46.667 27.421 46.872C27.266 46.959 26.873 47.127 26.421 46.898L13 34.569V30.013C13 29.46 12.553 29.013 12 29.013C11.447 29.013 11 29.46 11 30.013V34.009L2 34.013V17.013H11V21.013C11 21.566 11.447 22.013 12 22.013C12.553 22.013 13 21.566 13 21.013V16.477L26.405 5.13699C26.866 4.89499 27.265 5.06699 27.421 5.15499C27.783 5.35999 28 5.73899 28 6.16899V45.857Z"/>
        <path d="M38.797 7.06596C38.274 6.88896 37.706 7.16896 37.528 7.69196C37.351 8.21396 37.631 8.78296 38.154 8.96096C45.255 11.372 50.026 18.024 50.026 25.514C50.026 32.997 45.264 39.65 38.177 42.068C37.655 42.246 37.375 42.814 37.554 43.338C37.696 43.753 38.084 44.015 38.5 44.015C38.607 44.015 38.716 43.998 38.823 43.961C46.719 41.268 52.025 33.855 52.025 25.515C52.026 17.166 46.71 9.75296 38.797 7.06596Z"/>
        <path d="M43.026 25.513C43.026 19.541 39.017 14.211 33.277 12.551C32.744 12.4 32.193 12.703 32.039 13.235C31.886 13.765 32.191 14.32 32.723 14.473C37.612 15.886 41.027 20.426 41.027 25.513C41.027 30.6 37.612 35.14 32.723 36.553C32.192 36.706 31.886 37.261 32.039 37.791C32.166 38.229 32.565 38.514 33 38.514C33.092 38.514 33.185 38.501 33.277 38.475C39.018 36.815 43.026 31.485 43.026 25.513Z"/>
        </g>
    </symbol>

    <symbol id="time" viewBox="0 0 60 60">
        <path d="M31.634 37.989C32.675 37.908 33.624 37.377 34.24 36.53L43.603 23.586C43.89 23.189 43.847 22.641 43.499 22.293C43.151 21.946 42.603 21.903 42.206 22.189L29.26 31.555C28.416 32.169 27.885 33.118 27.804 34.159C27.723 35.2 28.1 36.219 28.837 36.956C29.508 37.628 30.413 38 31.354 38C31.447 38 31.54 37.996 31.634 37.989ZM29.798 34.315C29.833 33.858 30.067 33.441 30.435 33.173L38.332 27.46L32.621 35.355C32.351 35.726 31.934 35.959 31.477 35.995C31.022 36.025 30.575 35.867 30.25 35.542C29.928 35.219 29.762 34.771 29.798 34.315Z"/>
        <path d="M54.034 19.564C54.024 19.543 54.024 19.521 54.013 19.5C54.001 19.48 53.982 19.469 53.969 19.45C52.958 17.716 51.762 16.103 50.404 14.641L52.552 12.494L53.966 13.908L58.208 9.665L53.966 5.423L49.723 9.665L51.138 11.08L48.99 13.227C47.528 11.869 45.916 10.672 44.181 9.661C44.162 9.648 44.151 9.629 44.131 9.617C44.11 9.605 44.088 9.606 44.067 9.595C40.974 7.813 37.499 6.626 33.794 6.191V5H35.294C36.673 5 37.794 3.879 37.794 2.5C37.794 1.121 36.672 0 35.293 0H26.293C24.914 0 23.793 1.121 23.793 2.5C23.793 3.879 24.914 5 26.293 5H27.793V6.156C26.713 6.271 25.635 6.447 24.569 6.691C24.031 6.814 23.694 7.351 23.818 7.889C23.941 8.427 24.478 8.765 25.016 8.64C25.936 8.429 26.865 8.27 27.796 8.163L28.869 8.08C29.197 8.055 29.499 8.037 29.793 8.023V10C29.793 10.553 30.24 11 30.793 11C31.346 11 31.793 10.553 31.793 10V8.03C35.554 8.203 39.098 9.213 42.249 10.875L41.263 12.582C40.987 13.061 41.151 13.672 41.629 13.948C41.786 14.039 41.958 14.082 42.128 14.082C42.474 14.082 42.81 13.903 42.995 13.582L43.978 11.879C47.107 13.864 49.765 16.522 51.75 19.651L50.047 20.634C49.57 20.91 49.406 21.521 49.683 22C49.869 22.321 50.204 22.5 50.55 22.5C50.72 22.5 50.892 22.457 51.049 22.366L52.756 21.38C54.441 24.576 55.454 28.178 55.605 31.999H53.63C53.077 31.999 52.63 32.446 52.63 32.999C52.63 33.552 53.077 33.999 53.63 33.999H55.605C55.454 37.82 54.441 41.422 52.756 44.618L51.049 43.632C50.571 43.356 49.959 43.518 49.683 43.998C49.407 44.477 49.571 45.088 50.049 45.364L51.752 46.347C49.767 49.476 47.109 52.134 43.98 54.119L42.997 52.416C42.72 51.936 42.107 51.773 41.631 52.05C41.152 52.326 40.988 52.938 41.265 53.416L42.251 55.123C39.1 56.785 35.556 57.795 31.795 57.968V56C31.795 55.447 31.348 55 30.795 55C30.242 55 29.795 55.447 29.795 56V57.976C28.198 57.921 26.596 57.721 25.019 57.359C24.481 57.23 23.944 57.572 23.821 58.11C23.697 58.648 24.034 59.185 24.572 59.308C26.568 59.768 28.607 60 30.63 60C30.679 60 30.726 59.997 30.775 59.996C30.782 59.996 30.787 60 30.793 60C30.801 60 30.808 59.995 30.816 59.995C35.623 59.962 40.133 58.664 44.035 56.422C44.066 56.408 44.099 56.401 44.129 56.383C44.149 56.371 44.16 56.352 44.179 56.339C48.218 53.985 51.593 50.614 53.952 46.578C53.971 46.551 53.995 46.53 54.012 46.5C54.024 46.479 54.023 46.457 54.033 46.436C56.317 42.476 57.63 37.89 57.63 33C57.63 28.11 56.317 23.524 54.034 19.564ZM53.965 8.251L55.379 9.665L53.965 11.08L52.55 9.665L53.965 8.251ZM29.793 6.021V3H26.293C26.018 3 25.793 2.775 25.793 2.5C25.793 2.225 26.018 2 26.293 2H35.293C35.568 2 35.793 2.225 35.793 2.5C35.793 2.775 35.568 3 35.293 3H31.793V6.021C31.445 6.007 31.113 6 30.793 6C30.765 6 30.733 6.002 30.705 6.002C30.68 6.002 30.655 6 30.63 6C30.466 6 30.302 6.011 30.138 6.014C30.022 6.017 29.913 6.016 29.793 6.021Z"/>
        <path d="M21.793 14H16.793C16.24 14 15.793 14.447 15.793 15C15.793 15.553 16.24 16 16.793 16H21.793C22.346 16 22.793 15.553 22.793 15C22.793 14.447 22.346 14 21.793 14Z"/>
        <path d="M21.793 21H11.793C11.24 21 10.793 21.447 10.793 22C10.793 22.553 11.24 23 11.793 23H21.793C22.346 23 22.793 22.553 22.793 22C22.793 21.447 22.346 21 21.793 21Z"/>
        <path d="M21.793 28H6.793C6.24 28 5.793 28.447 5.793 29C5.793 29.553 6.24 30 6.793 30H21.793C22.346 30 22.793 29.553 22.793 29C22.793 28.447 22.346 28 21.793 28Z"/>
        <path d="M21.793 35H2.793C2.24 35 1.793 35.447 1.793 36C1.793 36.553 2.24 37 2.793 37H21.793C22.346 37 22.793 36.553 22.793 36C22.793 35.447 22.346 35 21.793 35Z"/>
        <path d="M21.793 42H8.793C8.24 42 7.793 42.447 7.793 43C7.793 43.553 8.24 44 8.793 44H21.793C22.346 44 22.793 43.553 22.793 43C22.793 42.447 22.346 42 21.793 42Z"/>
        <path d="M21.793 49H14.793C14.24 49 13.793 49.447 13.793 50C13.793 50.553 14.24 51 14.793 51H21.793C22.346 51 22.793 50.553 22.793 50C22.793 49.447 22.346 49 21.793 49Z"/>
    </symbol>
</svg>   